<svg width="450" height="450" viewBox="0 0 450 450" xmlns="http://www.w3.org/2000/svg" role="img" aria-label="Smart AI scheduler icon">

  <!-- Background (square app icon) -->
  <rect width="450" height="450" fill="#0F172A"></rect>

  <!-- Calendar base (rounded corners preserved) -->
  <rect x="110" y="120" width="230" height="200" rx="24" fill="#E5E7EB"></rect>

  <!-- Calendar header -->
  <rect x="110" y="120" width="230" height="48" rx="24" fill="#CBD5E1"></rect>

  <!-- Calendar rings -->
  <rect x="155" y="92" width="24" height="56" rx="12" fill="#0F172A"></rect>
  <rect x="271" y="92" width="24" height="56" rx="12" fill="#0F172A"></rect>

  <!-- Conversation bubble (AI) -->
  <path d="M190 215
       h70
       a24 24 0 0 1 24 24
       v26
       a24 24 0 0 1 -24 24
       h-22
       l-18 18
       v-18
       h-30
       a24 24 0 0 1 -24 -24
       v-26
       a24 24 0 0 1 24 -24
       z" fill="#22D3EE"></path>

  <!-- AI core dot -->
  <circle cx="225" cy="242" r="7" fill="#0F172A"></circle>

</svg>
